<svg width="35" height="35" viewBox="0 0 35 35" fill="none" xmlns="http://www.w3.org/2000/svg">
<path d="M27.4395 15.3125H12.8105L18.4844 9.88477C19.2979 9.03027 19.2979 7.64941 18.4844 6.79492C17.6709 5.94043 16.3516 5.94043 15.5312 6.79492L6.08398 15.9551C5.67383 16.3516 5.46875 16.8916 5.46875 17.4863V17.5137C5.46875 18.1084 5.67383 18.6484 6.08398 19.0449L15.5244 28.2051C16.3447 29.0596 17.6641 29.0596 18.4775 28.2051C19.291 27.3506 19.291 25.9697 18.4775 25.1152L12.8037 19.6875H27.4326C28.5879 19.6875 29.5244 18.71 29.5244 17.5C29.5312 16.2695 28.5947 15.3125 27.4395 15.3125Z" fill="black"/>
</svg>
